<?xml version="1.0" encoding="UTF-8" standalone="no"?>
<!-- Created with Inkscape (http://www.inkscape.org/) -->

<svg
   width="210mm"
   height="297mm"
   viewBox="0 0 210 297"
   version="1.1"
   id="svg1"
   xml:space="preserve"
   xmlns="http://www.w3.org/2000/svg"
   xmlns:svg="http://www.w3.org/2000/svg"><defs
     id="defs1" /><g
     id="layer2"><path
       style="display:inline;fill:#f0f0f0;fill-opacity:1"
       d="M 102.57213,287.68062 C 100.3278,286.59771 87.067791,276.84625 77.142581,268.97962 70.77924,263.9361 56.804284,251.0264 52.539341,246.2518 37.943416,229.91166 29.881788,213.2422 28.509285,196.56358 c -0.584219,-7.09943 0.156913,-14.71139 3.223857,-33.11131 0.597625,-3.58541 1.195157,-7.43704 1.327848,-8.55917 l 0.241257,-2.04025 -1.757782,-0.40628 c -4.558801,-1.05369 -8.928083,-5.25418 -12.136766,-11.66792 -4.335305,-8.66571 -7.258226,-21.19992 -6.406518,-27.47275 0.416537,-3.0678 0.897736,-4.69449 2.136326,-7.22186 2.140802,-4.36836 5.152149,-6.194843 10.196591,-6.184592 2.818626,0.0057 2.895685,-0.01528 2.683921,-0.731727 C 27.529977,97.516565 25.989953,88.445973 25.480531,84.222165 24.054222,72.39611 23.929313,63.896233 25.0981,58.198338 l 0.555552,-2.708346 -1.645465,-1.868231 c -0.905005,-1.027527 -2.199088,-2.884889 -2.875739,-4.127471 -1.364074,-2.504945 -2.507848,-6.057242 -1.95032,-6.057242 0.19383,0 1.076506,0.460712 1.961502,1.023806 2.581776,1.642696 11.569352,5.525391 15.692214,6.779144 7.846279,2.386035 12.558304,2.874217 27.857782,2.886161 11.175973,0.0087 16.93779,0.352175 28.338442,1.689198 2.973366,0.348704 5.492366,0.554249 5.597778,0.456766 0.259868,-0.240321 -0.89679,-1.058558 -5.581467,-3.948412 C 86.494666,48.280898 80.560372,45.797746 74.06987,44.382325 71.473734,43.81617 69.006759,43.668275 58.164073,43.428774 44.938575,43.13664 41.605164,42.832142 36.115645,41.414712 29.336861,39.664385 23.801015,35.96552 20.752627,31.149662 c -1.735831,-2.742274 -3.281395,-6.020873 -2.972822,-6.306236 0.108754,-0.100574 1.553408,0.08817 3.210343,0.419428 4.034382,0.806563 11.64921,0.810792 15.775764,0.0088 4.361289,-0.847654 7.346151,-1.905858 15.252739,-5.407455 11.030107,-4.884911 18.798207,-7.515291 29.10038,-9.853768 19.454509,-4.4159543 36.024479,-4.4040028 51.693839,0.03728 14.62347,4.144842 25.9833,12.426957 30.95601,22.569111 0.96448,1.967106 1.2026,2.196034 3.29729,3.169916 9.29077,4.31955 13.76658,9.103055 17.01206,18.181574 2.90383,8.122798 2.80173,13.56966 -0.6409,34.193213 -0.89879,5.384307 -1.73486,10.160679 -1.85793,10.61416 -0.22175,0.81707 -0.20116,0.824511 2.28149,0.824511 1.39028,0 3.29247,0.248052 4.27404,0.557354 3.5812,1.12845 6.80121,5.38159 7.99613,10.56165 1.68561,7.30724 -2.88358,25.89657 -8.52302,34.67514 -2.62098,4.0799 -6.09275,7.01033 -9.4859,8.00677 -0.728,0.21379 -1.40727,0.59026 -1.50949,0.83659 -0.31181,0.75144 0.80275,10.04949 1.92606,16.06784 1.55013,8.30516 2.16454,13.08087 2.4085,18.72104 0.75504,17.45531 -4.90656,34.01218 -16.93897,49.53658 -7.94586,10.25187 -21.13053,22.22462 -37.59603,34.14024 -6.58312,4.76402 -22.34628,15.45094 -22.77737,15.44232 -0.0567,-10e-4 -0.53492,-0.21041 -1.06271,-0.46507 z m 6.97751,-14.15868 c 5.72475,-5.50021 9.81588,-16.00188 11.55834,-29.6695 0.68772,-5.39438 0.59598,-17.4385 -0.17188,-22.5655 -1.87653,-12.52967 -3.18535,-20.76 -6.80535,-26.6113 l -1.32721,-2.14529 -10.08717,-0.11732 -6.2378,-0.18041 -1.083047,1.74 c -3.289138,5.28428 -6.640072,16.25948 -8.288527,27.14713 -2.087602,13.78812 -0.392286,30.81889 4.152545,41.71556 1.672822,4.01075 4.216829,8.17746 6.316324,10.34522 l 1.676776,1.73129 -0.02087,-2.65898 c -0.06247,-7.95764 0.902909,-50.05756 1.226179,-53.47322 0.6633,-7.00847 1.70022,-10.86488 2.92138,-10.86488 0.58335,0 2.05859,3.27291 2.65289,5.88562 1.22032,5.36482 1.44471,10.9453 1.46046,36.32023 0.009,13.74406 0.10297,24.98922 0.20985,24.98925 0.10689,2e-5 0.93809,-0.71453 1.84711,-1.5879 z m 16.41585,-10.69773 c -0.3484,1.04643 -0.39676,1.58794 -0.1418,1.58794 0.21279,0 1.95374,-1.47255 3.86878,-3.27234 6.22711,-5.85233 10.0204,-13.21624 11.74647,-22.80339 3.40281,-18.90037 -0.25646,-37.30145 -9.46776,-47.60996 -0.42908,-0.48019 -4.0439,-3.60497 -7.49774,-4.49928 -1.4905,1.96146 -3.41039,3.63968 -6.33962,4.37664 8.20965,19.44233 15.10463,50.3757 7.83167,72.22039 z m -5.81594,-80.07815 c -3.63454,-2.9867 -9.89785,-4.38598 -13.68414,-5.39757 -0.75203,0.2378 -3.59493,0.12945 -4.52698,-0.0531 -3.296984,0.70986 -9.805816,1.95979 -13.734134,5.38098 -1.161793,1.54709 1.648656,4.84013 15.995264,4.97007 14.34661,0.12994 16.89458,-3.58316 15.94999,-4.90038 z m -46.502694,10.83663 c -6.178502,10.95433 -8.148398,24.95063 -7.179051,36.66975 1.092009,13.20205 4.845814,22.12796 12.536726,29.81022 2.762046,2.75894 3.160308,2.64601 2.050803,-0.58149 -1.134259,-3.29952 -2.468758,-10.61871 -3.032425,-16.63164 -1.535734,-16.38247 5.328358,-37.72714 11.858564,-51.65411 -3.294242,-0.44875 -4.950317,-4.07075 -6.809082,-5.30129 -5.662506,3.29987 -7.999145,5.60088 -9.425535,7.68856 z m 81.071494,44.25519 c 3.30744,-4.944 5.09273,-10.25475 5.71652,-17.00504 0.70885,-7.67082 -0.70212,-15.30986 -4.71788,-25.54289 l -1.47779,-3.76572 -5.38419,0.0884 c -3.41494,0.0561 -5.32827,0.21065 -5.2313,0.42268 0.0841,0.18387 0.89872,1.96525 1.8103,3.95862 4.5824,10.02049 6.31517,19.20745 5.85757,31.0562 -0.23823,6.1685 -0.96766,12.70162 -1.67156,14.97136 -0.19751,0.63688 -0.35911,1.30373 -0.35911,1.4819 0,0.75187 3.81111,-3.20453 5.45744,-5.66548 z m -95.617476,2.58794 c -1.04104,-2.73541 -1.479048,-7.26968 -1.461284,-15.12726 0.01479,-6.54339 0.152178,-8.58236 0.822175,-12.20211 1.20443,-6.50709 2.908675,-12.24069 5.390571,-18.1355 0.71596,-1.70049 1.233718,-3.14914 1.150573,-3.21922 -0.08314,-0.0701 -2.380265,-0.19454 -5.104712,-0.27658 l -4.953541,-0.14916 -1.286223,3.23816 c -2.757748,6.94282 -4.205613,12.46503 -4.91942,18.76283 -0.898623,7.9284 0.98739,15.88799 5.295949,22.35061 1.671093,2.50656 4.727214,6.01187 5.241473,6.01187 0.165852,0 0.08685,-0.56413 -0.175561,-1.25364 z M 169.82404,207.82753 c 1.43919,-4.07182 1.66993,-6.35977 1.64328,-16.2937 -0.0189,-7.06316 -0.17635,-10.39242 -0.6085,-12.87072 -2.30084,-13.19486 -3.04102,-19.00848 -3.24508,-25.48789 -0.0535,-1.69922 -0.19234,-3.09077 -0.30848,-3.09231 -0.31735,-0.004 -3.02131,5.41907 -4.49892,9.02341 -2.04297,4.98344 -3.01495,8.9225 -3.28268,13.30349 -0.32127,5.2571 -0.28603,7.12432 3.64569,9.89972 2.71211,1.91446 4.8305,3.8533 5.88303,4.74256 0.40536,0.34249 -1.7811,0.94151 -4.87978,1.7937 -1.57884,0.4342 -2.62084,0.90069 -2.62084,1.1733 0,0.24889 0.80139,2.18337 1.78087,4.29885 2.14668,4.63643 3.73581,9.13213 4.59933,13.01168 0.35228,1.58271 0.75624,2.81151 0.89769,2.73067 0.14145,-0.0808 0.58893,-1.08559 0.99439,-2.23276 z m -129.011747,1.45491 c 0,-1.47511 2.584143,-9.88962 4.321364,-14.07127 2.68178,-6.45527 2.806009,-5.72111 -1.13229,-6.69151 -3.079948,-0.75891 -4.705069,-1.12111 -4.046411,-1.5685 1.438891,-0.97736 3.41522,-3.14869 6.72475,-5.38892 3.152899,-2.13421 3.322145,-4.08768 3.0083,-7.04644 -0.344525,-3.248 -1.215819,-7.50032 -2.210642,-10.78896 -1.043881,-3.45082 -4.396437,-12.35108 -4.789245,-12.71434 -0.151766,-0.14035 -0.473778,1.66095 -0.715584,4.00289 -0.241805,2.34194 -0.853977,6.66507 -1.360382,9.60695 -2.534274,14.72246 -3.669541,25.39712 -3.288728,30.92314 0.294587,4.27479 1.157603,9.37156 2.051981,12.11853 0.70077,2.15232 1.436887,2.98144 1.436887,1.61843 z M 152.78549,183.65236 c 0.44736,-0.1209 0.80922,-0.3151 0.80414,-0.43155 -0.005,-0.11646 -1.74781,-1.34002 -3.87273,-2.71902 -2.46147,-1.59741 -6.26301,-4.65325 -10.4757,-8.42081 -6.9696,-6.23316 -11.35484,-9.30852 -15.14157,-10.61875 -3.21236,-1.11149 -9.96358,-2.35591 -12.78126,-2.35591 -2.32932,0 -2.57715,0.069 -3.14935,0.87658 -0.77933,1.09994 -1.05719,4.3595 -0.50382,5.91013 0.62036,1.73831 3.47727,3.99597 7.30221,5.77052 1.8621,0.86392 5.82574,3.1118 8.80808,4.99529 2.98234,1.88349 6.43113,3.89319 7.664,4.46601 2.52002,1.17086 6.58246,2.28065 9.95879,2.72057 2.38073,0.3102 10.00326,0.18097 11.38721,-0.19306 z m -81.113798,-0.79462 c 4.444339,-1.11587 6.249209,-2.04239 15.873423,-8.14852 2.430328,-1.54194 5.89184,-3.50215 7.692248,-4.35604 1.800409,-0.85388 3.874489,-2.06162 4.609067,-2.68386 1.27337,-1.07863 1.3356,-1.23106 1.3356,-3.27196 0,-2.94699 -1.10654,-5.00498 -2.913096,-5.41794 -1.661117,-0.3797 -9.354984,1.07018 -13.728194,2.58703 -4.699101,1.62989 -7.645561,3.67441 -15.66442,10.86936 -4.260321,3.82259 -8.61828,7.3989 -10.439953,8.56743 -1.71983,1.10321 -3.135355,2.10763 -3.145611,2.23205 -0.03954,0.47963 1.456482,0.57196 7.392009,0.45622 4.846394,-0.0945 6.746486,-0.27075 8.988927,-0.83377 z M 151.1986,171.22678 c 3.72409,-4.84291 4.51203,-9.69386 8.08415,-19.7892 2.25326,-6.36806 3.75784,-11.55716 4.93315,-16.41448 3.12374,-12.90969 3.4684,-25.44015 1.11229,-40.437503 -1.6541,-10.528818 -3.57849,-16.653452 -7.20699,-22.937175 -1.10336,-1.910768 -2.48048,-4.790163 -3.06026,-6.398654 -1.14893,-3.187484 -2.00887,-9.025876 -1.61522,-10.966333 l 0.24333,-1.199515 -3.56968,1.653261 c -4.93348,2.284898 -9.79754,3.91075 -16.19845,5.414473 -15.67823,3.683176 -30.18966,4.555377 -47.038125,2.827197 -4.561828,-0.467915 -10.815663,-0.974533 -13.897411,-1.125816 -5.779042,-0.283695 -19.472806,0.131903 -19.989603,0.606672 -0.548178,0.503599 -3.154099,6.416065 -4.548743,10.320455 -4.728731,13.238369 -7.203641,34.891838 -5.664526,49.560038 1.153768,10.99572 2.220364,17.5369 5.259693,27.13661 2.514588,7.94231 6.080943,17.07326 9.5939,21.07943 1.65121,1.88304 0.338663,1.58794 0.448786,1.58794 0.110122,0 2.89776,-2.44892 6.19475,-5.44205 9.279375,-8.42416 14.018046,-11.35005 20.946031,-12.93313 l 3.253629,-0.74347 -1.180665,-1.55629 c -1.577995,-2.08003 -2.161445,-3.53259 -2.161445,-5.38115 0,-2.28359 1.078378,-4.04674 3.031,-4.95569 1.381148,-0.64293 1.662608,-0.94641 1.864387,-2.01024 0.695784,-3.66833 1.802807,-29.49321 1.299804,-30.32211 -0.148508,-0.24473 -1.124546,-0.54777 -2.168972,-0.67342 -1.044427,-0.12566 -3.821714,-0.67124 -6.17175,-1.2124 -10.640638,-2.45032 -20.055098,-3.87332 -22.815252,-3.44854 -1.951512,0.30033 -4.010384,1.29293 -5.949306,2.86821 -1.714125,1.39264 -2.889567,1.61483 -3.848995,0.72757 -2.083448,-1.92673 2.394042,-8.272194 7.339233,-10.401101 1.78609,-0.768912 2.549426,-0.893088 5.507668,-0.895961 2.906701,-0.0028 4.461454,0.237515 10.121872,1.564665 6.262358,1.468283 10.101921,2.187026 18.417271,3.447607 3.883404,0.58871 6.091765,1.5534 6.88538,3.00777 1.34659,2.46775 -0.043,35.3485 -1.807273,42.76413 -0.180827,0.76005 -0.176308,1.5522 0.0107,1.87534 0.492615,0.85122 3.719692,1.99447 6.237462,2.20973 1.96504,0.168 2.63653,0.054 5.32151,-0.90346 1.87688,-0.66928 3.52928,-1.51635 4.24585,-2.17655 1.07155,-0.98725 1.1541,-1.20925 0.95333,-2.56389 -0.40299,-2.71894 1.90693,-4.97644 4.54392,-4.44083 1.17719,0.23911 3.07086,1.96213 3.61006,3.28474 0.88036,2.15944 0.30941,5.25254 -1.40541,7.61379 -0.58266,0.80231 -1.00522,1.50884 -0.93901,1.57007 0.0662,0.0612 1.65117,0.46186 3.52213,0.8903 7.00346,1.60376 11.89824,4.59263 20.99759,12.82168 3.5432,3.20432 6.51931,5.75472 6.61356,5.66756 0.0943,-0.0872 -0.32495,0.0906 0.64465,-1.17028 z M 71.249515,120.1021 c -1.329977,-0.60615 -2.24058,-1.95345 -2.24058,-3.3151 v -0.89879 l -2.259347,0.25781 c -2.984996,0.34062 -5.14819,0.28388 -6.041971,-0.15848 -1.676944,-0.82997 -1.12877,-3.13593 0.98444,-4.14118 1.594357,-0.75843 5.606441,-1.22539 12.377813,-1.44064 6.970106,-0.22156 9.727021,0.1012 11.107264,1.30033 1.248586,1.08476 1.105347,2.65795 -0.344746,3.78634 -1.099811,0.85582 -1.319056,0.89732 -3.817123,0.72261 -2.274395,-0.15908 -2.676632,-0.10584 -2.836008,0.37538 -1.178574,3.55858 -3.853102,4.91392 -6.929742,3.51172 z m 59.755885,0.25835 c -1.08377,-0.44162 -2.35165,-1.82899 -2.66386,-2.9149 -0.2692,-0.93631 -0.35483,-0.96766 -3.08635,-1.13018 -2.51962,-0.1499 -2.89938,-0.26392 -3.68094,-1.10513 -1.62116,-1.74488 -0.86285,-3.93595 1.57928,-4.56318 2.68744,-0.69024 16.12667,-0.23785 20.42468,0.68752 2.00011,0.43063 3.97328,2.02224 3.80386,3.0683 -0.28415,1.75445 -3.33141,2.46782 -7.57124,1.77244 l -1.67793,-0.2752 -0.25522,1.397 c -0.14038,0.76836 -0.62148,1.79078 -1.06913,2.27205 -0.67701,0.72788 -1.17266,0.89278 -2.94703,0.98047 -1.17322,0.058 -2.45848,-0.0271 -2.85612,-0.18919 z m -19.69763,-11.96091 c -0.72477,-0.34989 -1.41006,-1.00535 -1.61091,-1.54081 -0.50233,-1.33919 0.40203,-3.46384 1.96853,-4.62472 1.29295,-0.95817 6.63994,-1.0988 26.20842,-7.270167 9.00985,-2.84146 12.65472,-1.157141 17.0308,2.868144 3.78261,3.479393 4.83872,8.283613 2.58033,9.446673 -1.11552,0.57448 -0.77583,-0.88289 -4.94032,-3.48019 -3.07577,-1.91829 -5.26819,-2.31681 -9.97137,-1.8125 -4.27261,0.45814 -10.99168,3.41677 -18.25552,5.31284 -6.43766,1.68041 -11.00814,2.0671 -13.00996,1.10073 z m 66.42734,37.15635 c 2.99046,-2.36719 6.00386,-8.3454 8.17982,-16.22774 2.87611,-10.41861 3.06142,-16.32296 0.64298,-20.48695 -1.66959,-2.87465 -3.49337,-2.70266 -7.34434,0.69261 -2.7405,2.4162 -2.77033,3.0256 -3.84256,6.80803 -1.07223,3.78243 -0.7202,10.68454 -0.60887,15.75947 0.11133,5.07493 0.50262,14.63575 1.20998,14.63575 0.14893,0 0.94227,-0.53153 1.76297,-1.18117 z m -143.647856,0.31493 c 0.326949,-0.78793 0.934936,-7.61655 0.934879,-10.50011 -2.16e-4,-10.75316 -1.196132,-19.19026 -1.196132,-19.19026 -0.280514,-2.69598 -1.100116,-4.80582 -2.459251,-6.33067 -1.207344,-1.35454 -4.121574,-2.89493 -5.476866,-2.89493 -2.295742,0 -4.598343,4.8829 -4.598343,9.75125 0,4.58127 1.640614,12.73807 3.450073,17.15306 2.256585,5.50595 5.15289,10.24308 7.155024,11.70259 1.330808,0.97013 1.883928,1.04817 2.190616,0.30907 z m 2.381559,-52.799574 c 0.0078,-2.366638 0.953861,-9.163666 1.819422,-13.071616 0.770177,-3.477294 3.246724,-11.83805 4.344127,-14.665654 1.258188,-3.241888 1.292773,-3.062327 -0.636017,-3.302088 -0.949462,-0.118024 -3.315198,-0.721043 -5.257189,-1.340041 -2.480898,-0.790772 -3.609642,-1.013489 -3.795702,-0.748944 -0.432205,0.614519 -0.117973,12.980056 0.481059,18.930395 0.538493,5.348997 1.7918,14.401308 2.214506,15.994793 0.328024,1.236565 0.823339,0.164007 0.829794,-1.796845 z M 174.88962,85.705321 c 3.43467,-19.459962 3.33518,-24.271183 -0.6563,-31.73769 -0.78634,-1.470938 -2.25728,-3.530067 -3.26876,-4.575841 -1.74089,-1.799917 -5.85627,-4.617525 -6.74433,-4.617525 -0.70608,0 -2.38252,6.894969 -2.56041,10.530583 -0.2307,4.715111 0.81262,8.260522 4.55935,15.493562 3.52757,6.809935 5.38847,12.657476 6.34652,19.942688 0.27918,2.123017 0.59093,3.588738 0.7339,3.450524 0.0611,-0.05911 0.77666,-3.87795 1.59003,-8.486301 z M 128.2494,54.262361 c 1.91345,-0.297567 3.67144,-0.636395 3.90666,-0.75295 0.4086,-0.202472 -0.70361,-1.407823 -9.50705,-10.303176 -6.63174,-6.700991 -14.3928,-11.557612 -22.759759,-14.242341 -13.098106,-4.202822 -26.845964,-4.79074 -40.098449,-1.714781 -4.093267,0.950065 -20.329787,5.430201 -21.127895,5.829811 -0.743701,0.372369 3.580877,1.554106 7.291014,1.992347 1.64561,0.19438 8.278889,0.49409 14.740619,0.666023 13.126971,0.349281 16.084268,0.73424 22.40068,2.915958 6.299728,2.175955 10.952313,4.535278 17.72531,8.988494 6.4486,4.239926 9.35559,5.562016 14.64056,6.658494 3.00427,0.623296 8.64419,0.606591 12.78831,-0.03788 z m 20.66146,-7.231543 c 5.26116,-2.524139 5.72486,-2.949647 6.17518,-5.666623 1.32999,-8.024348 -7.62818,-17.642467 -21.02378,-22.572603 -7.81591,-2.876578 -14.82822,-4.069108 -25.53333,-4.342255 -7.85704,-0.200478 -13.790923,0.167494 -20.522812,1.272659 -3.908753,0.641695 -10.254247,2.173863 -10.753493,2.596513 -0.138299,0.11708 2.627141,0.22593 6.145422,0.241888 5.451101,0.02473 7.074726,0.160262 10.98163,0.916718 8.748883,1.693965 17.977053,5.424243 24.334433,9.836643 3.46256,2.403223 8.37456,6.790123 14.079,12.573937 1.97038,1.9978 4.5703,4.362087 5.77759,5.253972 2.08671,1.541558 2.30582,1.622168 4.43851,1.632929 2.01268,0.01015 2.61971,-0.169206 5.90165,-1.743778 z"
       id="path1" /></g></svg>
